<?xml version="1.0" encoding="utf-8"?>
<!-- Generator: Adobe Illustrator 27.2.0, SVG Export Plug-In . SVG Version: 6.00 Build 0)  -->
<svg version="1.1" id="レイヤー_1" xmlns="http://www.w3.org/2000/svg" xmlns:xlink="http://www.w3.org/1999/xlink" x="0px"
	 y="0px" viewBox="0 0 1099.4 524.1" style="enable-background:new 0 0 1099.4 524.1;" xml:space="preserve">
<style type="text/css">
	.st0{fill:#004097;}
	.st1{clip-path:url(#SVGID_00000083805728600431027850000009145738250195928466_);}
	.st2{clip-path:url(#SVGID_00000049192528950666683070000001669228355417655973_);}
	.st3{opacity:0.65;}
	.st4{opacity:0.76;}
	.st5{fill:#4C79B7;}
	.st6{opacity:0.65;fill:#4C79B7;enable-background:new    ;}
	.st7{opacity:0.68;}
	.st8{opacity:0.9;}
	.st9{opacity:0.8;}
</style>
<g>
	<g id="_レイヤー_2">
		<g id="ado_lp">
			<polygon class="st0" points="0,0 0,494.9 32,524.1 33,524.1 1067.4,524.1 1099.4,494.9 1099.4,0 			"/>
			<g>
				<defs>
					<polygon id="SVGID_1_" points="0,-0.9 0,494.9 32,524.1 33,524.1 1067.4,524.1 1099.4,494.9 1099.4,-0.9 					"/>
				</defs>
				<clipPath id="SVGID_00000155833876894587895750000015233990750518699963_">
					<use xlink:href="#SVGID_1_"  style="overflow:visible;"/>
				</clipPath>
				<g style="clip-path:url(#SVGID_00000155833876894587895750000015233990750518699963_);">
					<g>
						<defs>
							<rect id="SVGID_00000133524873686149380070000004064979371783710876_" x="-42.4" y="0" width="1211.9" height="1606.1"/>
						</defs>
						<clipPath id="SVGID_00000079478480132695792660000009028855683623730092_">
							<use xlink:href="#SVGID_00000133524873686149380070000004064979371783710876_"  style="overflow:visible;"/>
						</clipPath>
						<g style="clip-path:url(#SVGID_00000079478480132695792660000009028855683623730092_);">
							<g class="st3">
								<g class="st4">
									<polygon class="st5" points="1206.2,293.1 -115.6,566 -114.8,569.3 1205.7,305.9 									"/>
								</g>
								<polygon class="st6" points="-80.6,210.1 1150.2,803.9 1150.5,801.3 -80.5,209.9 								"/>
								<g class="st7">
									<polygon class="st5" points="1103.3,1249.3 652.8,-74.6 651.9,-74.2 1092.2,1251.5 									"/>
								</g>
								<g class="st8">
									<g>
										<polygon class="st5" points="-130.6,256.7 743.9,978.9 748.5,975.1 -121.7,239.2 										"/>
										<polygon class="st5" points="-136.2,267.8 741,981.4 742.5,980.1 -133.4,262.2 										"/>
									</g>
								</g>
								<g>
									<polygon class="st5" points="133.2,-114.5 1104.9,179.4 1115.1,148 139.7,-128.6 									"/>
									<polygon class="st5" points="129.1,-105.5 1098.4,199.5 1101.7,189.3 131.2,-110 									"/>
								</g>
								<g class="st9">
									<polygon class="st5" points="-96.1,871.1 242.4,-269.6 225.3,-272 -102.2,869.3 									"/>
									<polygon class="st5" points="-92.2,872.3 253.3,-268.1 247.8,-268.8 -94.2,871.7 									"/>
								</g>
							</g>
						</g>
					</g>
				</g>
			</g>
		</g>
	</g>
</g>
</svg>
