<?xml version="1.0" encoding="UTF-8"?><svg xmlns="http://www.w3.org/2000/svg" xmlns:xlink="http://www.w3.org/1999/xlink" viewBox="0 0 1500.18 2171"><defs><style>.cls-1{opacity:.9;}.cls-2{fill:url(#_新規グラデーションスウォッチ_2);opacity:.18;}.cls-3{isolation:isolate;}.cls-4{fill:url(#_新規グラデーションスウォッチ_2-2);opacity:.23;}.cls-5{opacity:.08;}.cls-6{opacity:.8;}.cls-7{opacity:.76;}.cls-7,.cls-8,.cls-9,.cls-10{mix-blend-mode:multiply;}.cls-8{opacity:.95;}.cls-11{clip-path:url(#clippath);}.cls-9{opacity:.65;}.cls-9,.cls-12{fill:#004098;}.cls-13{fill:none;}.cls-10{opacity:.68;}</style><linearGradient id="_新規グラデーションスウォッチ_2" x1="4" y1="1116.47" x2="1500" y2="1116.47" gradientUnits="userSpaceOnUse"><stop offset="0" stop-color="#2ebad2"/><stop offset="1" stop-color="#a3d5d2"/></linearGradient><clipPath id="clippath"><rect class="cls-13" width="1500.18" height="2171"/></clipPath><linearGradient id="_新規グラデーションスウォッチ_2-2" x1="0" y1="1086" y2="1086" xlink:href="#_新規グラデーションスウォッチ_2"/></defs><g class="cls-3"><g id="_レイヤー_2"><g id="ado背景"><polygon class="cls-2" points="1500 420.94 1500 2151 4 1272.94 1500 81.94 1500 420.94"/><g class="cls-5"><g class="cls-11"><g><g><g class="cls-7"><polygon class="cls-12" points="1755.07 821.93 -362.79 1259.08 -361.49 1264.48 1754.32 842.37 1755.07 821.93"/></g><polygon class="cls-9" points="-306.69 688.85 1665.46 1640.36 1665.8 1636.17 -306.53 688.51 -306.69 688.85"/><g class="cls-10"><polygon class="cls-12" points="1590.18 2353.98 868.45 232.75 866.91 233.26 1572.53 2357.49 1590.18 2353.98"/></g><g class="cls-1"><g><polygon class="cls-12" points="-386.85 763.57 1014.44 1920.76 1021.75 1914.62 -372.65 735.42 -386.85 763.57"/><polygon class="cls-12" points="-395.81 781.33 1009.79 1924.66 1012.15 1922.68 -391.27 772.34 -395.81 781.33"/></g></g><g><polygon class="cls-12" points="-86.1 87.82 1592.84 639.63 1609.14 589.33 -75.71 65.2 -86.1 87.82"/><polygon class="cls-12" points="-92.73 102.26 1582.4 671.85 1587.7 655.5 -89.36 94.94 -92.73 102.26"/></g><g class="cls-6"><polygon class="cls-12" points="-331.55 1748.03 210.77 -79.74 183.4 -83.59 -341.36 1745.14 -331.55 1748.03"/><polygon class="cls-12" points="-325.3 1749.87 228.26 -77.28 219.39 -78.53 -328.47 1748.93 -325.3 1749.87"/></g></g><g class="cls-8"><g><polygon class="cls-12" points="1843.65 2182.91 -482.69 1873.58 -478.19 1844.89 1860.07 2078.23 1843.65 2182.91"/><polygon class="cls-12" points="1833.19 2249.54 -485.56 1891.85 -484.11 1882.59 1838.49 2215.76 1833.19 2249.54"/></g></g></g></g></g><rect class="cls-4" y="1" width="1500" height="2170"/></g></g></g></svg>