<?xml version="1.0" encoding="UTF-8"?><svg xmlns="http://www.w3.org/2000/svg" xmlns:xlink="http://www.w3.org/1999/xlink" viewBox="0 0 1502.18 5961"><defs><style>.cls-1{isolation:isolate;}.cls-2{opacity:.08;}.cls-3{opacity:.8;}.cls-4{clip-path:url(#clippath-1);}.cls-5{opacity:.76;}.cls-5,.cls-6,.cls-7,.cls-8{mix-blend-mode:multiply;}.cls-9{fill:url(#_新規グラデーションスウォッチ_1);}.cls-9,.cls-10,.cls-11{opacity:.18;}.cls-6{opacity:.95;}.cls-12{clip-path:url(#clippath);}.cls-7{opacity:.65;}.cls-7,.cls-13{fill:#FF0000;}.cls-14{fill:none;}.cls-8{opacity:.68;}.cls-10{fill:url(#_新規グラデーションスウォッチ_1-3);}.cls-11{fill:url(#_新規グラデーションスウォッチ_1-2);}</style><linearGradient id="_新規グラデーションスウォッチ_1" x1="2" y1="2980.5" x2="1502" y2="2980.5" gradientUnits="userSpaceOnUse"><stop offset="0" stop-color="#FF5353"/><stop offset=".2" stop-color="#FF5353"/><stop offset=".68" stop-color="#FF5353"/><stop offset="1" stop-color="#FF6E6E"/></linearGradient><linearGradient id="_新規グラデーションスウォッチ_1-2" x1="4" y1="1054.5" x2="1500" y2="1054.5" xlink:href="#_新規グラデーションスウォッチ_1"/><clipPath id="clippath"><rect class="cls-14" x="1" y="0" width="1500.18" height="2367"/></clipPath><clipPath id="clippath-1"><rect class="cls-14" x="2" y="0" width="1500" height="5961"/></clipPath><linearGradient id="_新規グラデーションスウォッチ_1-3" x1="4" y1="5397.28" x2="1500" y2="5397.28" xlink:href="#_新規グラデーションスウォッチ_1"/></defs><g class="cls-1"><g id="_レイヤー_2"><g id="ado背景"><rect class="cls-9" x="2" y="0" width="1500" height="5961"/><polygon class="cls-11" points="4 339 4 2109 1500 1191 4 0 4 339"/><g class="cls-2"><g class="cls-12"><g><g><g class="cls-5"><polygon class="cls-13" points="-254.9 911.99 1862.96 1349.14 1861.66 1354.54 -254.14 932.43 -254.9 911.99"/></g><polygon class="cls-7" points="1806.87 778.91 -165.28 1730.42 -165.63 1726.23 1806.71 778.57 1806.87 778.91"/><g class="cls-8"><polygon class="cls-13" points="-90 2444.04 631.73 322.81 633.26 323.32 -72.35 2447.55 -90 2444.04"/></g><g><polygon class="cls-13" points="1464.27 -252.12 -92.66 218.69 -108.96 168.39 1453.89 -274.74 1464.27 -252.12"/><polygon class="cls-13" points="1470.9 -237.68 -82.22 250.91 -87.52 234.56 1467.54 -245 1470.9 -237.68"/></g><g class="cls-3"><polygon class="cls-13" points="2161.06 1564.8 1108.32 -24.73 1133.37 -36.41 2169.6 1559.17 2161.06 1564.8"/><polygon class="cls-13" points="2155.62 1568.39 1092.32 -17.27 1100.44 -21.05 2158.38 1566.57 2155.62 1568.39"/></g></g><g class="cls-6"><g><polygon class="cls-13" points="-362.97 2292.47 1963.37 1983.14 1958.87 1954.45 -379.39 2187.79 -362.97 2292.47"/><polygon class="cls-13" points="-352.52 2359.1 1966.24 2001.41 1964.78 1992.15 -357.82 2325.32 -352.52 2359.1"/></g></g></g></g></g><g class="cls-4"><polygon class="cls-10" points="4 4681.78 4 6451.78 1500 5533.78 4 4342.78 4 4681.78"/></g></g></g></g></svg>