<?xml version="1.0" encoding="UTF-8"?><svg xmlns="http://www.w3.org/2000/svg" xmlns:xlink="http://www.w3.org/1999/xlink" viewBox="0 0 1500.18 2632"><defs><style>.cls-1{opacity:.9;}.cls-2{isolation:isolate;}.cls-3{opacity:.8;}.cls-4{opacity:.11;}.cls-5{opacity:.76;}.cls-5,.cls-6,.cls-7,.cls-8{mix-blend-mode:multiply;}.cls-6{opacity:.95;}.cls-9{clip-path:url(#clippath);}.cls-7{opacity:.65;}.cls-7,.cls-10{fill:#004098;}.cls-11{fill:none;}.cls-8{opacity:.68;}.cls-12{fill:#dfeff7;opacity:.23;}</style><clipPath id="clippath"><rect class="cls-11" width="1500.18" height="1984.15"/></clipPath></defs><g class="cls-2"><g id="_レイヤー_2"><g id="ado背景"><g class="cls-4"><g class="cls-9"><g><g><g class="cls-5"><polygon class="cls-10" points="1755.07 587.99 -362.79 1025.14 -361.49 1030.54 1754.32 608.43 1755.07 587.99"/></g><polygon class="cls-7" points="-306.69 454.91 1665.46 1406.42 1665.8 1402.23 -306.53 454.57 -306.69 454.91"/><g class="cls-8"><polygon class="cls-10" points="1590.18 2120.04 868.45 -1.19 866.91 -.68 1572.53 2123.55 1590.18 2120.04"/></g><g class="cls-1"><g><polygon class="cls-10" points="-386.85 529.63 1014.44 1686.82 1021.75 1680.68 -372.65 501.48 -386.85 529.63"/><polygon class="cls-10" points="-395.81 547.39 1009.79 1690.72 1012.15 1688.74 -391.27 538.4 -395.81 547.39"/></g></g><g><polygon class="cls-10" points="915.9 -83.12 2472.84 387.69 2489.14 337.39 926.29 -105.74 915.9 -83.12"/><polygon class="cls-10" points="909.27 -68.68 2462.4 419.91 2467.7 403.56 912.64 -76 909.27 -68.68"/></g><g class="cls-3"><polygon class="cls-10" points="-331.55 1514.09 210.77 -313.68 183.4 -317.53 -341.36 1511.2 -331.55 1514.09"/><polygon class="cls-10" points="-325.3 1515.93 228.26 -311.22 219.39 -312.47 -328.47 1514.99 -325.3 1515.93"/></g></g><g class="cls-6"><g><polygon class="cls-10" points="1843.65 1948.97 -482.69 1639.64 -478.19 1610.95 1860.07 1844.29 1843.65 1948.97"/><polygon class="cls-10" points="1833.19 2015.6 -485.56 1657.91 -484.11 1648.65 1838.49 1981.82 1833.19 2015.6"/></g></g></g></g></g><rect class="cls-12" width="1500" height="2632"/></g></g></g></svg>